<svg width="796" height="255" viewBox="0 0 796 255" fill="none" xmlns="http://www.w3.org/2000/svg">
<path d="M43.0547 169.66C44.1899 171.734 45.643 173.619 47.3616 175.248C52.4174 180.194 58.4361 183.67 64.8723 186.486C73.7949 190.425 83.3234 192.833 93.0537 193.606C98.7617 194.056 104.442 193.915 110.029 192.476C111.966 191.978 111.596 192.228 111.61 190.491C111.799 162.932 111.984 135.376 112.166 107.822C112.205 102.477 112.244 97.1345 112.283 91.7927C112.283 91.4767 112.283 91.1573 112.283 90.6284C106.188 90.6284 100.204 90.6524 94.2201 90.6284C87.1972 90.594 80.1743 90.4978 73.1514 90.4772C72.4666 90.4871 71.7956 90.6703 71.2016 91.0096C69.2276 92.1327 67.3226 93.3863 65.3693 94.5368C64.931 94.7944 64.0579 95.1104 63.9405 94.9593C63.5437 94.4613 63.1606 93.7503 63.1951 93.1424C63.347 90.333 63.6368 87.527 63.8853 84.721C64.0372 83.0037 64.2097 81.3036 64.365 79.5932C64.4617 78.5354 65.0552 78.2572 66.0906 78.2675C74.2903 78.3602 82.49 78.4015 90.6897 78.4633L110.875 78.6213H112.214C112.277 78.4752 112.321 78.3217 112.345 78.1645C112.39 74.6166 112.321 71.0619 112.511 67.5175C112.601 65.8758 111.769 65.2404 110.651 64.2993C106.237 60.5832 103.272 55.95 102.92 50.0357C102.53 43.5102 104.846 38.1935 110.454 34.5598C113.073 32.8062 116.23 32.0312 119.368 32.372C120.058 32.4476 120.321 32.2415 120.61 31.6542C121.189 30.472 121.847 29.3302 122.581 28.2368C123.038 27.5739 123.605 26.9932 124.258 26.5196C125.715 25.4549 127.219 25.8567 127.982 27.495C128.845 29.4607 129.079 31.6432 128.651 33.7458C128.306 35.6382 128.755 36.988 129.904 38.5919C134.391 44.8221 134.211 51.4336 130.725 58.0485C129.169 61.0022 126.86 63.3514 124.086 65.2369C123.955 65.3204 123.842 65.43 123.756 65.5589C123.67 65.6878 123.612 65.8332 123.585 65.9857C123.606 70.0453 123.672 74.1014 123.727 78.161C123.748 78.3176 123.78 78.4726 123.823 78.6247H125.204L169.219 78.2813C169.622 78.2813 170.026 78.2813 170.43 78.2813C171.12 78.2813 171.541 78.5285 171.617 79.2704C171.817 81.2658 172.066 83.2579 172.256 85.2568C172.497 87.843 172.728 90.4326 172.894 93.0222C172.899 93.6003 172.759 94.1705 172.487 94.6811C172.142 95.368 171.579 95.0795 171.086 94.7807C168.987 93.4962 166.906 92.1842 164.787 90.9409C164.293 90.6433 163.729 90.4777 163.152 90.4601C150.097 90.5425 137.043 90.6455 123.989 90.7692C123.961 90.7692 123.934 90.807 123.792 90.9134C123.792 91.2191 123.792 91.6003 123.792 91.9987C124.022 124.97 124.236 157.942 124.434 190.913C124.434 191.844 124.759 192.163 125.604 192.383C130.967 193.781 136.427 194.069 141.914 193.674C155.549 192.695 168.339 188.904 180.083 181.86C184.452 179.236 188.438 176.131 191.516 172.006C192.058 171.281 192.524 170.498 193.1 169.626L185.183 167.527C184.838 167.431 184.472 167.342 184.12 167.232C182.923 166.858 182.698 166.267 183.351 165.192C186.176 160.525 189.004 155.858 191.833 151.189C192.382 150.283 192.869 149.335 193.507 148.479C193.857 148.112 194.279 147.82 194.746 147.621C195.616 147.143 196.058 147.672 196.496 148.352C200.848 155.132 205.227 161.898 209.568 168.688C209.851 169.128 210.155 169.914 209.955 170.21C209.717 170.553 208.944 170.697 208.405 170.694C205.686 170.673 202.967 170.581 200.247 170.498C199.726 170.481 199.377 170.519 199.212 171.185C197.593 178.13 194.156 184.188 189.808 189.752C180.576 201.563 168.936 210.473 155.732 217.452C147.336 221.943 138.325 225.191 128.986 227.092C119.548 228.978 110.24 228.315 101.071 225.674C79.5877 219.492 61.4696 208.041 47.1477 190.868C42.3162 185.071 38.5925 178.621 36.8462 171.189C36.6944 170.543 36.3562 170.502 35.8282 170.502C33.2192 170.581 30.6102 170.642 28.0012 170.711C27.7078 170.711 27.411 170.735 27.1177 170.711C25.9236 170.625 25.6165 170.065 26.2515 169.056C27.5215 167.043 28.8225 165.048 30.1098 163.045L39.5208 148.459C40.4388 147.037 41.7364 147.085 42.6268 148.562C45.9927 154.103 49.3529 159.646 52.7073 165.192C53.3975 166.315 53.1525 166.909 51.8377 167.253C49.2528 167.96 46.6611 168.626 44.0659 169.313C43.7656 169.427 43.455 169.536 43.0547 169.66ZM114.229 131.362H113.846V192.84C113.798 193.128 113.807 193.423 113.87 193.709C114.064 194.046 114.296 194.361 114.561 194.646C114.826 194.323 115.213 194.038 115.33 193.667C115.411 193.2 115.424 192.723 115.368 192.252C115.488 151.496 115.603 110.74 115.713 69.9835C115.713 69.3378 115.996 68.3589 114.992 68.3177C113.926 68.2765 114.219 69.2794 114.219 69.9148C114.219 90.3914 114.223 110.874 114.229 131.362ZM126.653 199.88L122.339 199.654C121.784 199.626 121.145 199.544 121.087 200.341C121.028 201.138 121.601 201.21 122.194 201.23C123.444 201.278 124.693 201.371 125.942 201.375C132.231 201.359 138.502 200.714 144.661 199.448C157.026 196.989 168.877 193.108 179.9 186.925C184.176 184.521 188.293 181.873 191.447 178.064C192.613 176.656 193.393 174.915 194.253 173.277C194.387 173.023 194.001 172.504 193.856 172.106C193.511 172.36 193.076 172.542 192.858 172.875C191.885 174.362 191.133 176.031 190.008 177.378C187.533 180.328 184.358 182.485 181.087 184.477C173.867 188.876 166.085 192.033 158.03 194.523C148.057 197.61 137.886 199.633 126.657 199.88H126.653ZM106.347 202.972C108.542 202.762 110.737 202.594 112.904 202.312C113.273 202.264 113.874 201.728 113.864 201.433C113.836 200.688 113.173 200.746 112.597 200.839C107.155 201.728 101.74 201.33 96.3564 200.423C83.0939 198.187 70.7184 193.506 59.1332 186.747C53.432 183.419 48.1209 179.579 43.7484 174.578C43.386 174.163 43.1065 173.654 42.6785 173.332C42.4301 173.143 41.9642 173.235 41.5984 173.205C41.5244 173.561 41.5012 173.927 41.5293 174.29C41.6361 174.562 41.8165 174.8 42.0504 174.977C44.5973 177.381 46.9786 180.032 49.7429 182.189C59.4369 189.745 70.4216 194.852 82.0966 198.555C89.9926 201.038 98.0267 202.724 106.351 202.961L106.347 202.972ZM117.342 44.0356C114.82 44.2177 112.473 46.3093 111.945 48.8165C111.448 51.1932 112.756 53.7107 115.165 54.9986C117.718 56.3724 120.479 55.8916 122.581 53.7279C124.034 52.2304 124.607 50.0186 123.868 48.7169C123.395 49.2286 122.957 49.7713 122.45 50.235C120.569 51.9522 118.678 51.4405 117.908 49.0123C117.733 48.4535 117.617 47.8779 117.563 47.295C117.456 46.1994 117.415 45.1106 117.346 44.0253L117.342 44.0356ZM103.676 47.7861C103.771 48.312 103.943 48.8212 104.187 49.2973C104.373 49.5858 104.946 49.6408 105.346 49.7816C105.463 49.4086 105.545 49.0258 105.591 48.6379C105.626 47.7518 105.405 46.8142 105.619 45.983C106.301 43.2824 107.65 40.7939 109.543 38.743C110.268 37.96 111.268 37.4379 112.09 36.7373C112.345 36.44 112.552 36.1052 112.704 35.7447C112.311 35.5798 111.862 35.2089 111.538 35.2982C110.902 35.4695 110.317 35.7912 109.833 36.2358C108.86 37.12 107.972 38.0915 107.179 39.138C105.367 41.6452 104.021 44.3928 103.676 47.7861ZM195.391 149.506C194.87 150.193 196.427 166.291 197.083 167.098C197.597 166.435 196.047 150.32 195.391 149.506ZM37.7987 166.136C38.719 160.9 39.6243 155.661 40.5147 150.42C40.5458 150.231 40.3594 150.011 40.2524 149.733C39.4552 150.619 37.0119 165.443 37.7987 166.136ZM66.1734 81.6127L65.7592 81.6333C65.667 81.9287 65.5978 82.2307 65.5522 82.5366C65.3348 85.7754 65.1208 89.0141 64.9379 92.2529C64.9797 92.5753 65.0778 92.888 65.2278 93.1768C65.3865 92.902 65.6695 92.6376 65.6902 92.3525C65.9352 89.0794 66.1458 85.8029 66.3425 82.5263C66.3241 82.216 66.2673 81.9092 66.1734 81.6127V81.6127ZM114.54 35.9782L115.033 35.9576C115.313 35.4871 115.755 35.0372 115.834 34.5357C115.858 34.3895 115.843 34.2397 115.792 34.1007C115.741 33.9616 115.655 33.8379 115.542 33.7414C115.429 33.6449 115.293 33.5788 115.148 33.5496C115.002 33.5203 114.851 33.5287 114.709 33.5741C114.464 33.6714 114.246 33.8262 114.073 34.0253C113.901 34.2244 113.779 34.4619 113.719 34.7178C113.684 35.1196 114.243 35.5558 114.54 35.9782ZM66.4046 78.896H66.1147C65.9836 79.1467 65.7247 79.4112 65.7696 79.6448C65.8144 79.8783 66.0802 80.184 66.2527 80.4519C66.4356 80.2733 66.7738 80.0878 66.7669 79.9195C66.6983 79.5622 66.5762 79.2172 66.4046 78.896Z" fill="black"/>
<path d="M172.821 172.737C172.438 175.224 172.162 177.735 171.641 180.19C171.558 180.681 171.374 181.149 171.101 181.565C170.828 181.982 170.472 182.338 170.054 182.612C169.637 182.886 169.168 183.071 168.676 183.157C168.183 183.243 167.679 183.226 167.193 183.11C165.122 182.629 163.904 180.706 164.408 178.466C166.358 169.822 164.007 162.228 158.593 155.479C152.139 147.435 143.512 142.843 133.614 140.395C132.686 140.164 131.74 140.007 130.819 139.773C128.748 139.241 127.564 137.503 127.913 135.511C128.261 133.519 130.056 132.076 132.199 132.519C135.298 133.118 138.353 133.921 141.344 134.923C151.584 138.53 160.208 144.399 166.396 153.446C170.354 159.129 172.585 165.826 172.821 172.737V172.737Z" fill="black"/>
<path d="M72.6166 109.961C72.796 103.46 74.3421 98.5449 76.8683 93.9186C77.9795 91.8854 80.1295 91.2294 82.0449 92.2357C83.9602 93.242 84.54 95.4023 83.4633 97.4459C81.6273 100.918 80.3366 104.555 80.1744 108.498C79.8811 115.525 82.8386 121.031 88.4121 125.19C93.7889 129.225 100.042 130.943 106.651 131.592C109.557 131.88 111.22 134.219 110.264 136.699C109.629 138.344 108.073 139.217 105.961 139.017C102.151 138.688 98.3929 137.918 94.762 136.723C88.5501 134.642 83.0664 131.444 78.8147 126.382C74.563 121.319 72.5476 115.381 72.6166 109.961Z" fill="black"/>
<path d="M92.4669 78.2744C91.8336 78.2552 91.2169 78.0681 90.6806 77.7324C90.1443 77.3967 89.7078 76.9246 89.4162 76.3648C89.0464 75.7646 88.871 75.0657 88.9135 74.3629C88.9561 73.6601 89.2147 72.9874 89.6543 72.4357C91.4626 69.9972 93.3504 67.6274 95.2105 65.2232C96.6668 63.3445 98.1059 61.4452 99.6003 59.5974C100.039 58.9994 100.655 58.5523 101.361 58.3184C102.068 58.0845 102.83 58.0754 103.541 58.2923C105.025 58.6873 106.04 59.6936 106.175 61.1945C106.257 62.1047 106.078 63.2552 105.55 63.9696C102.32 68.3177 98.9687 72.5765 95.6315 76.8422C95.2597 77.3178 94.7775 77.6965 94.2264 77.946C93.6752 78.1954 93.0715 78.3081 92.4669 78.2744Z" fill="black"/>
<path d="M247.686 127.519C242.831 127.519 238.48 126.731 234.634 125.154C230.787 123.578 227.698 121.245 225.365 118.155C223.095 115.065 221.897 111.345 221.771 106.994H238.985C239.237 109.453 240.088 111.345 241.538 112.669C242.989 113.93 244.88 114.561 247.213 114.561C249.61 114.561 251.501 114.025 252.889 112.953C254.276 111.818 254.969 110.273 254.969 108.318C254.969 106.679 254.402 105.323 253.267 104.251C252.195 103.179 250.839 102.297 249.2 101.603C247.623 100.909 245.353 100.121 242.39 99.2383C238.102 97.9141 234.602 96.59 231.891 95.2658C229.18 93.9416 226.847 91.9869 224.892 89.4016C222.937 86.8164 221.96 83.4429 221.96 79.2812C221.96 73.1018 224.198 68.278 228.675 64.8099C233.152 61.2788 238.985 59.5133 246.173 59.5133C253.488 59.5133 259.383 61.2788 263.86 64.8099C268.337 68.278 270.733 73.1333 271.049 79.3758H253.551C253.424 77.2319 252.636 75.5609 251.186 74.3629C249.736 73.1017 247.876 72.4712 245.606 72.4712C243.651 72.4712 242.074 73.0072 240.876 74.0791C239.678 75.088 239.079 76.5698 239.079 78.5245C239.079 80.6684 240.088 82.3394 242.106 83.5375C244.124 84.7355 247.277 86.0282 251.564 87.4154C255.852 88.8657 259.32 90.2529 261.969 91.5771C264.68 92.9012 267.013 94.8244 268.968 97.3466C270.922 99.8689 271.9 103.116 271.9 107.089C271.9 110.872 270.922 114.309 268.968 117.398C267.076 120.488 264.302 122.947 260.644 124.776C256.987 126.604 252.668 127.519 247.686 127.519ZM297.743 60.4591V100.184C297.743 104.157 298.721 107.215 300.675 109.359C302.63 111.503 305.499 112.575 309.282 112.575C313.066 112.575 315.966 111.503 317.984 109.359C320.002 107.215 321.011 104.157 321.011 100.184V60.4591H337.185V100.09C337.185 106.017 335.923 111.03 333.401 115.128C330.879 119.227 327.474 122.317 323.186 124.398C318.961 126.478 314.232 127.519 308.999 127.519C303.765 127.519 299.067 126.51 294.906 124.492C290.807 122.411 287.56 119.322 285.164 115.223C282.768 111.061 281.569 106.017 281.569 100.09V60.4591H297.743ZM407.94 126.857H391.767L364.716 85.902V126.857H348.542V60.4591H364.716L391.767 101.603V60.4591H407.94V126.857ZM458.16 126.857L435.838 97.5358V126.857H419.664V60.4591H435.838V89.5908L457.971 60.4591H476.982L451.255 92.9958L477.928 126.857H458.16ZM501.788 73.417V86.8479H523.447V99.3329H501.788V113.899H526.285V126.857H485.614V60.4591H526.285V73.417H501.788ZM596.184 126.857H580.01L552.959 85.902V126.857H536.785V60.4591H552.959L580.01 101.603V60.4591H596.184V126.857ZM271.427 145.459V158.417H253.834V211.857H237.661V158.417H220.068V145.459H271.427ZM313.405 211.857L299.596 186.792H295.718V211.857H279.544V145.459H306.689C311.923 145.459 316.369 146.373 320.026 148.202C323.746 150.031 326.52 152.553 328.349 155.769C330.178 158.921 331.092 162.453 331.092 166.362C331.092 170.776 329.831 174.717 327.309 178.185C324.85 181.653 321.192 184.112 316.337 185.562L331.66 211.857H313.405ZM295.718 175.347H305.744C308.707 175.347 310.914 174.622 312.365 173.172C313.878 171.722 314.635 169.672 314.635 167.024C314.635 164.502 313.878 162.516 312.365 161.065C310.914 159.615 308.707 158.89 305.744 158.89H295.718V175.347ZM357.419 158.417V171.848H379.078V184.333H357.419V198.899H381.916V211.857H341.245V145.459H381.916V158.417H357.419ZM433.749 200.128H408.968L404.996 211.857H388.065L412.089 145.459H430.817L454.841 211.857H437.722L433.749 200.128ZM429.587 187.643L421.359 163.335L413.224 187.643H429.587ZM486.177 212.519C481.322 212.519 476.971 211.731 473.125 210.154C469.278 208.578 466.188 206.245 463.855 203.155C461.585 200.065 460.387 196.345 460.261 191.994H477.475C477.728 194.453 478.579 196.345 480.029 197.669C481.479 198.93 483.371 199.561 485.704 199.561C488.1 199.561 489.992 199.025 491.379 197.953C492.766 196.818 493.46 195.273 493.46 193.318C493.46 191.679 492.893 190.323 491.758 189.251C490.686 188.179 489.33 187.297 487.69 186.603C486.114 185.909 483.844 185.121 480.88 184.238C476.593 182.914 473.093 181.59 470.382 180.266C467.67 178.942 465.337 176.987 463.383 174.402C461.428 171.816 460.45 168.443 460.45 164.281C460.45 158.102 462.689 153.278 467.166 149.81C471.643 146.279 477.475 144.513 484.664 144.513C491.978 144.513 497.874 146.279 502.351 149.81C506.828 153.278 509.224 158.133 509.539 164.376H492.041C491.915 162.232 491.127 160.561 489.677 159.363C488.226 158.102 486.366 157.471 484.096 157.471C482.142 157.471 480.565 158.007 479.367 159.079C478.169 160.088 477.57 161.57 477.57 163.525C477.57 165.668 478.579 167.339 480.597 168.537C482.614 169.736 485.767 171.028 490.055 172.415C494.343 173.866 497.811 175.253 500.459 176.577C503.171 177.901 505.504 179.824 507.458 182.347C509.413 184.869 510.391 188.116 510.391 192.089C510.391 195.872 509.413 199.309 507.458 202.398C505.567 205.488 502.792 207.947 499.135 209.776C495.478 211.604 491.159 212.519 486.177 212.519ZM536.234 145.459V185.184C536.234 189.157 537.211 192.215 539.166 194.359C541.121 196.503 543.99 197.575 547.773 197.575C551.556 197.575 554.457 196.503 556.475 194.359C558.493 192.215 559.501 189.157 559.501 185.184V145.459H575.675V185.09C575.675 191.017 574.414 196.03 571.892 200.128C569.37 204.227 565.965 207.317 561.677 209.398C557.452 211.478 552.723 212.519 547.489 212.519C542.256 212.519 537.558 211.51 533.396 209.492C529.298 207.411 526.05 204.322 523.654 200.223C521.258 196.061 520.06 191.017 520.06 185.09V145.459H536.234ZM620.894 211.857L607.084 186.792H603.206V211.857H587.033V145.459H614.178C619.412 145.459 623.857 146.373 627.514 148.202C631.235 150.031 634.009 152.553 635.838 155.769C637.666 158.921 638.581 162.453 638.581 166.362C638.581 170.776 637.32 174.717 634.797 178.185C632.338 181.653 628.681 184.112 623.826 185.562L639.148 211.857H620.894ZM603.206 175.347H613.232C616.196 175.347 618.403 174.622 619.853 173.172C621.366 171.722 622.123 169.672 622.123 167.024C622.123 164.502 621.366 162.516 619.853 161.065C618.403 159.615 616.196 158.89 613.232 158.89H603.206V175.347ZM664.907 158.417V171.848H686.567V184.333H664.907V198.899H689.404V211.857H648.734V145.459H689.404V158.417H664.907ZM723.929 212.519C719.074 212.519 714.723 211.731 710.876 210.154C707.03 208.578 703.94 206.245 701.607 203.155C699.337 200.065 698.139 196.345 698.013 191.994H715.227C715.479 194.453 716.331 196.345 717.781 197.669C719.231 198.93 721.123 199.561 723.456 199.561C725.852 199.561 727.744 199.025 729.131 197.953C730.518 196.818 731.212 195.273 731.212 193.318C731.212 191.679 730.644 190.323 729.509 189.251C728.437 188.179 727.082 187.297 725.442 186.603C723.866 185.909 721.596 185.121 718.632 184.238C714.344 182.914 710.845 181.59 708.133 180.266C705.422 178.942 703.089 176.987 701.134 174.402C699.18 171.816 698.202 168.443 698.202 164.281C698.202 158.102 700.441 153.278 704.918 149.81C709.395 146.279 715.227 144.513 722.416 144.513C729.73 144.513 735.626 146.279 740.103 149.81C744.58 153.278 746.976 158.133 747.291 164.376H729.793C729.667 162.232 728.879 160.561 727.429 159.363C725.978 158.102 724.118 157.471 721.848 157.471C719.893 157.471 718.317 158.007 717.119 159.079C715.921 160.088 715.322 161.57 715.322 163.525C715.322 165.668 716.331 167.339 718.349 168.537C720.366 169.736 723.519 171.028 727.807 172.415C732.095 173.866 735.563 175.253 738.211 176.577C740.922 177.901 743.255 179.824 745.21 182.347C747.165 184.869 748.142 188.116 748.142 192.089C748.142 195.872 747.165 199.309 745.21 202.398C743.319 205.488 740.544 207.947 736.887 209.776C733.23 211.604 728.91 212.519 723.929 212.519Z" fill="black"/>
</svg>
